<svg xmlns="http://www.w3.org/2000/svg" xmlns:xlink="http://www.w3.org/1999/xlink" width="60" height="60" viewBox="0 0 60 60">
  <defs>
    <clipPath id="a">
      <rect x="-414.54916" y="-607.65063" width="575.01415" height="579.33754" style="fill: none"/>
    </clipPath>
  </defs>
  <title>icon</title>
  <g style="clip-path: url(#a)">
    <g style="opacity: 0.25">
      <path d="M-31.50916,8.91185l-152.5823-88.09213V-255.36974l152.5823-88.09213,152.5723,88.09213V-79.18028ZM-131.02194-109.824l99.51277,57.44861L67.99864-109.824V-224.72607l-99.50781-57.44861-99.51277,57.44861Z" style="fill: #77a7e6"/>
      <path d="M-31.51115,108.49075-270.32891-29.38789V-305.16014L-31.51115-443.03871,207.30661-305.16014V-29.38789ZM-217.25938-60.03148l185.74823,107.235L154.232-60.03148v-214.485L-31.51115-381.75656-217.25938-274.51647Z" style="fill: #77a7e6"/>
      <path d="M-31.50817,208.07515l-325.06323-187.68V-354.94505L-31.50817-542.62517,293.54505-354.94505V20.39511ZM-303.50187-10.24352-31.50817,146.788,240.47553-10.24352V-324.30138L-31.50817-481.338l-271.9937,157.0366Z" style="fill: #77a7e6"/>
    </g>
  </g>
  <path d="M3.21825,3.21825h53.5635v53.5635H3.21825ZM47.69542,15.89148v-.59767h-9.924L30.7181,32.98923,22.588,15.29381H12.18594v.59767l3.34693,4.065a1.19044,1.19044,0,0,1,.47813,1.19623V37.05426a1.91609,1.91609,0,0,1-.47813,1.55393l-3.82507,4.54316v.59857H22.4676v-.59857l-3.82507-4.54316a1.92374,1.92374,0,0,1-.47993-1.55393V23.30434l9.44583,20.44559h1.0767l8.00963-20.44559V39.68489a.97346.97346,0,0,1-.23907.7172l-2.8688,2.8688v.59857H47.69542v-.59857l-2.8706-2.74927a1.14682,1.14682,0,0,1-.3577-.83673V19.47837a1.14682,1.14682,0,0,1,.3577-.83673Z" style="fill: #77a7e6"/>
</svg>
