<svg xmlns="http://www.w3.org/2000/svg" xmlns:xlink="http://www.w3.org/1999/xlink" width="60" height="60" viewBox="0 0 60 60">
  <defs>
    <clipPath id="a">
      <rect x="-507.60629" y="-607.65063" width="575.01415" height="579.33754" style="fill: none"/>
    </clipPath>
  </defs>
  <title>icon</title>
  <g style="clip-path: url(#a)">
    <g style="opacity: 0.25">
      <path d="M-124.5663,8.91185-277.1486-79.18028V-255.36974l152.5823-88.09213L28.006-255.36974V-79.18028ZM-224.07907-109.824l99.51277,57.44861L-25.05849-109.824V-224.72607l-99.50781-57.44861-99.51277,57.44861Z" style="fill: #77a7e6"/>
      <path d="M-124.56829,108.49075-363.386-29.38789V-305.16014l238.81776-137.87857L114.24948-305.16014V-29.38789ZM-310.31652-60.03148l185.74823,107.235L61.17491-60.03148v-214.485L-124.56829-381.75656-310.31652-274.51647Z" style="fill: #77a7e6"/>
      <path d="M-124.56531,208.07515l-325.06323-187.68V-354.94505l325.06323-187.68012L200.48792-354.94505V20.39511ZM-396.559-10.24352-124.56531,146.788,147.41839-10.24352V-324.30138L-124.56531-481.338-396.559-324.30138Z" style="fill: #77a7e6"/>
    </g>
  </g>
  <path d="M52.00671,20.183A31.99034,31.99034,0,0,1,48.232,35.17768a30.81256,30.81256,0,0,1-10.8964,12.1906A31.12577,31.12577,0,0,1,19.75249,52.439,31.43268,31.43268,0,0,1,2.38331,47.36828q1.18635.10785,2.69624.10785A22.45349,22.45349,0,0,0,19.21145,42.622a10.544,10.544,0,0,1-6.63455-2.21182,11.26325,11.26325,0,0,1-3.93651-5.55605q1.0785.10785,2.04914.10785a14.405,14.405,0,0,0,3.02159-.32355A11.40547,11.40547,0,0,1,7.23834,30.6471a10.85268,10.85268,0,0,1-2.59019-7.11987v-.2157a10.68529,10.68529,0,0,0,5.07073,1.51079A12.56957,12.56957,0,0,1,6.052,20.72224,10.9779,10.9779,0,0,1,6.2677,9.611a31.22294,31.22294,0,0,0,10.30143,8.415A31.37856,31.37856,0,0,0,29.5686,21.47808a15.738,15.738,0,0,1-.2157-2.58929,11.23422,11.23422,0,0,1,1.50989-5.6639,11.077,11.077,0,0,1,4.10008-4.15311,10.94039,10.94039,0,0,1,5.61-1.51079,10.80469,10.80469,0,0,1,4.58361.97155,12.80224,12.80224,0,0,1,3.72261,2.58929,23.09042,23.09042,0,0,0,7.22772-2.69714,11.24525,11.24525,0,0,1-4.96288,6.25707,24.37435,24.37435,0,0,0,6.47277-1.83434,24.90809,24.90809,0,0,1-5.71783,5.93352A6.425,6.425,0,0,1,52.00671,20.183Z" style="fill: #77a7e6"/>
</svg>
