<svg xmlns="http://www.w3.org/2000/svg" xmlns:xlink="http://www.w3.org/1999/xlink" width="100" height="100" viewBox="0 0 100 100">
  <defs>
    <clipPath id="a">
      <rect x="-500.98301" y="-747.81659" width="575.01415" height="579.33754" style="fill: none"/>
    </clipPath>
  </defs>
  <title>sbv__icon</title>
  <g style="clip-path: url(#a)">
    <g style="opacity: 0.25">
      <path d="M-117.942,67.90919l-325.06323-187.68V-495.111L-117.942-682.79113,207.1112-495.111v375.34016Zm-271.9937-218.31867L-117.942,6.62208l271.9837-157.03156V-464.46734L-117.942-621.50395l-271.9937,157.0366Z" style="fill: #77a7e6"/>
    </g>
  </g>
  <g>
    <polygon points="32.845 46.555 29.116 46.555 29.116 58.612 32.845 56.459 32.845 46.555" style="fill: none"/>
    <polygon points="29.116 34.497 29.116 34.497 32.845 36.65 32.845 36.65 50 26.745 50.001 26.745 50.001 22.44 50 22.439 29.116 34.497" style="fill: none"/>
    <polygon points="50 46.555 38.812 46.555 38.812 53.014 50 46.555" style="fill: none"/>
    <polygon points="67.155 46.555 70.884 46.555 70.884 34.497 67.155 36.65 67.155 46.555" style="fill: none"/>
    <polygon points="67.155 56.459 50.001 66.364 50.001 70.669 70.884 58.613 70.884 58.612 67.155 56.459 67.155 56.459" style="fill: none"/>
    <polygon points="50 46.555 38.812 40.095 38.812 46.555 50 46.555 50 46.555" style="fill: none"/>
    <polygon points="67.155 36.65 67.155 36.65 70.884 34.497 70.884 34.497 50.001 22.44 50.001 26.745 67.155 36.65" style="fill: none"/>
    <polygon points="67.155 56.459 70.884 58.612 70.884 46.555 67.155 46.555 67.155 56.459" style="fill: none"/>
    <polygon points="32.845 36.65 29.116 34.497 29.116 46.555 32.845 46.555 32.845 36.65" style="fill: none"/>
    <polygon points="50.001 46.554 50.001 33.636 50 33.636 38.812 40.095 38.812 40.095 50 46.555 50.001 46.554" style="fill: none"/>
    <polygon points="50 46.555 50 46.555 50 46.555 50 46.555" style="fill: none"/>
    <polygon points="50 46.555 50 46.555 38.812 53.014 38.812 53.014 50 59.473 50.001 59.473 50.001 46.555 50 46.555" style="fill: none"/>
    <polygon points="50.001 46.555 50.001 46.555 50 46.555 50.001 46.555" style="fill: none"/>
    <rect x="50" y="46.55439" width="0.00059" height="0.00027" style="fill: none"/>
    <polygon points="50.001 59.473 61.188 53.014 50.001 46.555 50.001 59.473" style="fill: none"/>
    <polygon points="50.001 46.555 61.189 46.555 61.189 40.095 61.188 40.095 50.001 46.554 50.001 46.555" style="fill: none"/>
    <polygon points="61.188 40.095 50.001 33.636 50.001 46.554 61.188 40.095" style="fill: none"/>
    <polygon points="50.001 46.555 61.188 53.014 61.189 53.014 61.189 46.555 50.001 46.555 50.001 46.555" style="fill: none"/>
    <polygon points="50 66.364 32.845 56.459 32.845 56.459 29.116 58.612 29.116 58.613 50 70.669 50.001 70.669 50.001 66.364 50 66.364" style="fill: none"/>
    <polygon points="76.852 62.058 50.001 77.56 50.001 81.866 80.581 64.21 80.581 64.21 76.852 62.057 76.852 62.058" style="fill: none"/>
    <polygon points="76.852 31.052 76.852 31.052 80.58 28.899 50.001 11.243 50.001 15.549 76.852 31.052" style="fill: none"/>
    <polygon points="23.149 31.052 50 15.549 50.001 15.549 50.001 11.243 19.42 28.899 23.149 31.052 23.149 31.052" style="fill: none"/>
    <polygon points="23.149 46.555 19.419 46.555 19.419 64.21 23.149 62.057 23.149 46.555" style="fill: none"/>
    <polygon points="23.149 31.052 19.42 28.899 19.419 28.899 19.419 46.555 23.149 46.555 23.149 31.052" style="fill: none"/>
    <polygon points="50 77.56 23.149 62.058 23.149 62.057 19.419 64.21 19.419 64.21 50.001 81.866 50.001 77.56 50 77.56" style="fill: none"/>
    <polygon points="80.58 28.899 76.852 31.052 76.852 46.555 80.581 46.555 80.581 28.899 80.58 28.899" style="fill: none"/>
    <polygon points="76.852 62.057 80.581 64.21 80.581 46.555 76.852 46.555 76.852 62.057" style="fill: none"/>
    <polygon points="38.812 46.555 38.812 40.095 32.845 36.65 32.845 46.555 38.812 46.555" style="fill: #77a7e6"/>
    <polygon points="61.189 53.014 61.188 53.014 67.155 56.459 67.155 46.555 61.189 46.555 61.189 53.014" style="fill: #77a7e6"/>
    <polygon points="61.189 40.095 61.189 46.555 67.155 46.555 67.155 36.65 61.188 40.095 61.189 40.095" style="fill: #77a7e6"/>
    <polygon points="50 59.473 38.812 53.014 38.812 53.014 32.845 56.459 32.845 56.459 50 66.364 50.001 66.364 50.001 59.473 50 59.473" style="fill: #77a7e6"/>
    <polygon points="38.812 46.555 32.845 46.555 32.845 56.459 38.812 53.014 38.812 46.555" style="fill: #77a7e6"/>
    <polygon points="50.001 59.473 50.001 66.364 67.155 56.459 67.155 56.459 61.188 53.014 50.001 59.473" style="fill: #77a7e6"/>
    <polygon points="50.001 15.549 50.001 22.44 70.884 34.497 70.884 34.497 76.852 31.052 76.852 31.052 50.001 15.549" style="fill: #77a7e6"/>
    <polygon points="70.884 58.612 76.852 62.057 76.852 46.555 70.884 46.555 70.884 58.612" style="fill: #77a7e6"/>
    <polygon points="29.116 46.555 23.149 46.555 23.149 62.057 29.116 58.612 29.116 46.555" style="fill: #77a7e6"/>
    <polygon points="70.884 46.555 76.852 46.555 76.852 31.052 70.884 34.497 70.884 46.555" style="fill: #77a7e6"/>
    <polygon points="29.116 34.497 23.149 31.052 23.149 46.555 29.116 46.555 29.116 34.497" style="fill: #77a7e6"/>
    <polygon points="29.116 34.497 50 22.439 50.001 22.44 50.001 15.549 50 15.549 23.149 31.052 23.149 31.052 29.116 34.497 29.116 34.497" style="fill: #77a7e6"/>
    <polygon points="80.581 64.21 50.001 81.866 50.001 88.757 86.548 67.655 80.581 64.21 80.581 64.21" style="fill: #77a7e6"/>
    <polygon points="19.419 64.21 19.419 64.21 13.452 67.655 50.001 88.757 50.001 81.866 19.419 64.21" style="fill: #77a7e6"/>
    <polygon points="80.581 46.555 80.581 64.21 86.548 67.655 86.548 46.555 80.581 46.555" style="fill: #77a7e6"/>
    <polygon points="19.419 28.899 19.42 28.899 13.452 25.454 13.452 46.555 19.419 46.555 19.419 28.899" style="fill: #77a7e6"/>
    <polygon points="80.581 28.899 80.581 46.555 86.548 46.555 86.548 25.454 80.58 28.899 80.581 28.899" style="fill: #77a7e6"/>
    <polygon points="19.419 46.555 13.452 46.555 13.452 67.655 19.419 64.21 19.419 46.555" style="fill: #77a7e6"/>
  </g>
</svg>
