<svg xmlns="http://www.w3.org/2000/svg" xmlns:xlink="http://www.w3.org/1999/xlink" width="100" height="100" viewBox="0 0 100 100">
  <defs>
    <clipPath id="a">
      <rect x="-255.49207" y="-747.81659" width="575.01415" height="579.33754" style="fill: none"/>
    </clipPath>
  </defs>
  <title>sbv__icon</title>
  <g style="clip-path: url(#a)">
    <g style="opacity: 0.25">
      <path d="M127.54892,67.90919l-325.06323-187.68V-495.111L127.54892-682.79113,452.60214-495.111v375.34016Zm-271.9937-218.31867L127.54892,6.62208l271.9837-157.03156V-464.46734l-271.9837-157.0366-271.9937,157.0366Z" style="fill: #77a7e6"/>
    </g>
  </g>
  <g>
    <polygon points="32.845 50 29.116 50 29.116 62.057 32.845 59.904 32.845 50" style="fill: none"/>
    <polygon points="29.116 37.942 29.116 37.943 32.845 40.096 32.845 40.095 50 30.19 50.001 30.191 50.001 25.885 50 25.885 29.116 37.942" style="fill: none"/>
    <polygon points="50 50 38.812 50 38.812 56.459 50 50" style="fill: none"/>
    <polygon points="67.155 50 70.884 50 70.884 37.943 67.155 40.096 67.155 50" style="fill: none"/>
    <polygon points="67.155 59.905 50.001 69.81 50.001 74.115 70.884 62.058 70.884 62.057 67.155 59.904 67.155 59.905" style="fill: none"/>
    <polygon points="50 50 38.812 43.541 38.812 50 50 50 50 50" style="fill: none"/>
    <polygon points="67.155 40.095 67.155 40.096 70.884 37.943 70.884 37.942 50.001 25.885 50.001 30.191 67.155 40.095" style="fill: none"/>
    <polygon points="67.155 59.904 70.884 62.057 70.884 50 67.155 50 67.155 59.904" style="fill: none"/>
    <polygon points="32.845 40.096 29.116 37.943 29.116 50 32.845 50 32.845 40.096" style="fill: none"/>
    <polygon points="50.001 50 50.001 37.081 50 37.081 38.812 43.541 38.812 43.541 50 50 50.001 50" style="fill: none"/>
    <polygon points="50 50 50 50 50 50 50 50" style="fill: none"/>
    <polygon points="50 50 50 50 38.812 56.459 38.812 56.46 50 62.919 50.001 62.919 50.001 50 50 50" style="fill: none"/>
    <polygon points="50.001 50 50.001 50 50 50 50.001 50" style="fill: none"/>
    <rect x="50" y="49.99984" width="0.00059" height="0.00027" style="fill: none"/>
    <polygon points="50.001 62.919 61.188 56.46 50.001 50 50.001 62.919" style="fill: none"/>
    <polygon points="50.001 50 61.189 50 61.189 43.541 61.188 43.54 50.001 50 50.001 50" style="fill: none"/>
    <polygon points="61.188 43.54 50.001 37.081 50.001 50 61.188 43.54" style="fill: none"/>
    <polygon points="50.001 50 61.188 56.46 61.189 56.46 61.189 50 50.001 50 50.001 50" style="fill: none"/>
    <polygon points="50 69.81 32.845 59.905 32.845 59.904 29.116 62.057 29.116 62.058 50 74.115 50.001 74.115 50.001 69.81 50 69.81" style="fill: none"/>
    <polygon points="76.852 65.503 50.001 81.006 50.001 85.312 80.581 67.656 80.581 67.656 76.852 65.503 76.852 65.503" style="fill: none"/>
    <polygon points="76.852 34.497 76.852 34.497 80.58 32.345 50.001 14.689 50.001 18.995 76.852 34.497" style="fill: none"/>
    <polygon points="23.149 34.497 50 18.995 50.001 18.995 50.001 14.689 19.42 32.345 23.149 34.498 23.149 34.497" style="fill: none"/>
    <polygon points="23.149 50 19.419 50 19.419 67.656 23.149 65.502 23.149 50" style="fill: none"/>
    <polygon points="23.149 34.498 19.42 32.345 19.419 32.345 19.419 50 23.149 50 23.149 34.498" style="fill: none"/>
    <polygon points="50 81.006 23.149 65.503 23.149 65.502 19.419 67.656 19.419 67.656 50.001 85.312 50.001 81.006 50 81.006" style="fill: none"/>
    <polygon points="80.58 32.345 76.852 34.497 76.852 50 80.581 50 80.581 32.345 80.58 32.345" style="fill: none"/>
    <polygon points="76.852 65.503 80.581 67.656 80.581 50 76.852 50 76.852 65.503" style="fill: none"/>
    <polygon points="38.812 43.541 50 37.081 50.001 37.081 50.001 30.191 50 30.19 32.845 40.095 32.845 40.096 38.812 43.541 38.812 43.541" style="fill: #77a7e6"/>
    <polygon points="38.812 50 38.812 43.541 32.845 40.096 32.845 50 38.812 50" style="fill: #77a7e6"/>
    <polygon points="61.188 43.54 67.155 40.096 67.155 40.095 50.001 30.191 50.001 37.081 61.188 43.54" style="fill: #77a7e6"/>
    <polygon points="61.189 56.46 61.188 56.46 67.155 59.904 67.155 50 61.189 50 61.189 56.46" style="fill: #77a7e6"/>
    <polygon points="61.189 43.541 61.189 50 67.155 50 67.155 40.096 61.188 43.54 61.189 43.541" style="fill: #77a7e6"/>
    <polygon points="50 62.919 38.812 56.46 38.812 56.459 32.845 59.904 32.845 59.905 50 69.81 50.001 69.81 50.001 62.919 50 62.919" style="fill: #77a7e6"/>
    <polygon points="38.812 50 32.845 50 32.845 59.904 38.812 56.459 38.812 50" style="fill: #77a7e6"/>
    <polygon points="50.001 62.919 50.001 69.81 67.155 59.905 67.155 59.904 61.188 56.46 50.001 62.919" style="fill: #77a7e6"/>
    <polygon points="70.884 62.057 76.852 65.503 76.852 50 70.884 50 70.884 62.057" style="fill: #77a7e6"/>
    <polygon points="70.884 62.058 50.001 74.115 50.001 81.006 76.852 65.503 76.852 65.503 70.884 62.057 70.884 62.058" style="fill: #77a7e6"/>
    <polygon points="29.116 50 23.149 50 23.149 65.502 29.116 62.057 29.116 50" style="fill: #77a7e6"/>
    <polygon points="70.884 50 76.852 50 76.852 34.497 70.884 37.943 70.884 50" style="fill: #77a7e6"/>
    <polygon points="29.116 37.943 23.149 34.498 23.149 50 29.116 50 29.116 37.943" style="fill: #77a7e6"/>
    <polygon points="29.116 37.942 50 25.885 50.001 25.885 50.001 18.995 50 18.995 23.149 34.497 23.149 34.498 29.116 37.943 29.116 37.942" style="fill: #77a7e6"/>
    <polygon points="19.419 67.656 19.419 67.656 13.452 71.101 50.001 92.202 50.001 85.312 19.419 67.656" style="fill: #77a7e6"/>
    <polygon points="80.581 50 80.581 67.656 86.548 71.101 86.548 50 80.581 50" style="fill: #77a7e6"/>
    <polygon points="19.419 32.345 19.42 32.345 13.452 28.899 13.452 50 19.419 50 19.419 32.345" style="fill: #77a7e6"/>
    <polygon points="80.581 32.345 80.581 50 86.548 50 86.548 28.899 80.58 32.345 80.581 32.345" style="fill: #77a7e6"/>
    <polygon points="80.58 32.345 86.548 28.899 50.001 7.798 50.001 14.689 80.58 32.345" style="fill: #77a7e6"/>
    <polygon points="19.419 50 13.452 50 13.452 71.101 19.419 67.656 19.419 50" style="fill: #77a7e6"/>
  </g>
</svg>
